<svg width="165" height="101" viewBox="0 0 165 101" fill="none" xmlns="http://www.w3.org/2000/svg">
<mask id="path-1-inside-1_1_278" fill="white">
<path fill-rule="evenodd" clip-rule="evenodd" d="M163.564 11.9917C163.933 11.4571 164.131 10.823 164.131 10.1735V4.07125C164.131 2.30331 162.698 0.870117 160.93 0.870117H133.112C132.06 0.870117 131.075 1.3871 130.477 2.253L66.2621 95.3002C64.7966 97.4236 66.3167 100.32 68.8967 100.32H100.926C101.978 100.32 102.963 99.8025 103.561 98.9366L163.564 11.9917ZM114.701 95.3001C113.236 97.4236 114.756 100.32 117.336 100.32H160.93C162.698 100.32 164.131 98.8863 164.131 97.1184V33.9513C164.131 30.8106 160.079 29.5481 158.295 32.133L114.701 95.3001ZM82.0378 2.253C82.6354 1.3871 83.6203 0.870117 84.6724 0.870117H116.702C119.282 0.870117 120.802 3.76599 119.336 5.88948L55.1215 98.9366C54.5239 99.8025 53.539 100.32 52.4869 100.32H20.4575C17.8774 100.32 16.3574 97.4236 17.8229 95.3002L82.0378 2.253ZM70.8972 5.88948C72.3627 3.766 70.8427 0.870117 68.2626 0.870117H36.2332C35.1811 0.870117 34.1962 1.3871 33.5986 2.253L0.639627 50.0104C0.270702 50.545 0.0731201 51.1792 0.0731201 51.8287V97.1184C0.0731201 98.8863 1.50631 100.32 3.27424 100.32H4.04769C5.09978 100.32 6.08472 99.8025 6.68231 98.9366L70.8972 5.88948ZM0.0731201 4.07124C0.0731201 2.30331 1.50631 0.870117 3.27424 0.870117H25.4973C25.677 0.870117 25.7829 1.07178 25.6808 1.21966L25.554 1.40342C25.554 1.40346 25.5539 1.40347 25.5539 1.40344V1.40344C25.5538 1.40341 25.5538 1.40343 25.5537 1.40347L5.90886 29.8688C4.12494 32.4537 0.0731201 31.1913 0.0731201 28.0505V4.07124Z"/>
</mask>
<path d="M25.5537 1.40347L26.2124 1.85803L26.2124 1.85803L25.5537 1.40347ZM25.554 1.40342L26.2126 1.85798L25.554 1.40342ZM25.6808 1.21966L26.3395 1.67422L25.6808 1.21966ZM6.68231 98.9366L7.34096 99.3912L6.68231 98.9366ZM0.639627 50.0104L1.29828 50.465L0.639627 50.0104ZM70.8972 5.88948L70.2386 5.43492L70.8972 5.88948ZM33.5986 2.253L34.2573 2.70756L33.5986 2.253ZM17.8229 95.3002L17.1643 94.8456L17.8229 95.3002ZM55.1215 98.9366L54.4629 98.4821L55.1215 98.9366ZM82.0378 2.253L81.3792 1.79845L82.0378 2.253ZM119.336 5.88948L119.995 6.34404L119.336 5.88948ZM158.295 32.133L157.636 31.6785L158.295 32.133ZM114.701 95.3001L114.043 94.8456L114.701 95.3001ZM103.561 98.9366L102.902 98.4821L103.561 98.9366ZM66.2621 95.3002L65.6035 94.8456L66.2621 95.3002ZM130.477 2.253L131.136 2.70756L130.477 2.253ZM163.564 11.9917L164.223 12.4463L163.564 11.9917ZM164.931 10.1735V4.07125H163.33V10.1735H164.931ZM160.93 0.069836H133.112V1.6704H160.93V0.069836ZM129.818 1.79845L65.6035 94.8456L66.9208 95.7547L131.136 2.70756L129.818 1.79845ZM68.8967 101.12H100.926V99.5192H68.8967V101.12ZM104.219 99.3912L164.223 12.4463L162.906 11.5372L102.902 98.4821L104.219 99.3912ZM117.336 101.12H160.93V99.5192H117.336V101.12ZM164.931 97.1184V33.9513H163.33V97.1184H164.931ZM157.636 31.6785L114.043 94.8456L115.36 95.7547L158.954 32.5876L157.636 31.6785ZM116.702 0.069836H84.6724V1.6704H116.702V0.069836ZM55.7802 99.3912L119.995 6.34404L118.678 5.43492L54.4629 98.4821L55.7802 99.3912ZM20.4575 101.12H52.4869V99.5192H20.4575V101.12ZM81.3792 1.79845L17.1643 94.8456L18.4816 95.7547L82.6965 2.70756L81.3792 1.79845ZM36.2332 1.6704H68.2626V0.069836H36.2332V1.6704ZM1.29828 50.465L34.2573 2.70756L32.94 1.79844L-0.0190279 49.5559L1.29828 50.465ZM0.873401 97.1184V51.8287H-0.727161V97.1184H0.873401ZM4.04769 99.5192H3.27424V101.12H4.04769V99.5192ZM70.2386 5.43492L6.02365 98.4821L7.34096 99.3912L71.5559 6.34404L70.2386 5.43492ZM25.4973 0.069836H3.27424V1.6704H25.4973V0.069836ZM26.2126 1.85798L26.3395 1.67422L25.0222 0.765097L24.8953 0.948861L26.2126 1.85798ZM6.56752 30.3234L26.2124 1.85803L24.8951 0.948909L5.25021 29.4142L6.56752 30.3234ZM-0.727161 4.07124V28.0505H0.873401V4.07124H-0.727161ZM5.25021 29.4142C3.91227 31.3529 0.873401 30.4061 0.873401 28.0505H-0.727161C-0.727161 31.9764 4.33762 33.5545 6.56752 30.3234L5.25021 29.4142ZM26.0097 0.74571C25.636 0.486672 25.1396 0.59458 24.8951 0.948909L26.2124 1.85803C25.9679 2.21227 25.4716 2.32016 25.098 2.06118L26.0097 0.74571ZM24.8953 0.948861C25.1467 0.584619 25.646 0.493598 26.0097 0.74571L25.098 2.06118C25.4618 2.31335 25.9612 2.22231 26.2126 1.85798L24.8953 0.948861ZM3.27424 0.069836C1.06433 0.069836 -0.727161 1.86133 -0.727161 4.07124H0.873401C0.873401 2.74529 1.94829 1.6704 3.27424 1.6704V0.069836ZM25.4973 1.6704C25.032 1.6704 24.7578 1.14809 25.0222 0.765097L26.3395 1.67422C26.8079 0.99547 26.322 0.069836 25.4973 0.069836V1.6704ZM4.04769 101.12C5.36281 101.12 6.59397 100.474 7.34096 99.3912L6.02365 98.4821C5.57546 99.1315 4.83676 99.5192 4.04769 99.5192V101.12ZM-0.727161 97.1184C-0.727161 99.3283 1.06433 101.12 3.27424 101.12V99.5192C1.94829 99.5192 0.873401 98.4443 0.873401 97.1184H-0.727161ZM-0.0190279 49.5559C-0.480184 50.2241 -0.727161 51.0168 -0.727161 51.8287H0.873401C0.873401 51.3415 1.02159 50.8659 1.29828 50.465L-0.0190279 49.5559ZM68.2626 1.6704C70.1977 1.6704 71.3377 3.84231 70.2386 5.43492L71.5559 6.34404C73.3877 3.68969 71.4877 0.069836 68.2626 0.069836V1.6704ZM36.2332 0.069836C34.9181 0.069836 33.687 0.71606 32.94 1.79844L34.2573 2.70756C34.7055 2.05813 35.4442 1.6704 36.2332 1.6704V0.069836ZM20.4575 99.5192C18.5225 99.5192 17.3825 97.3473 18.4816 95.7547L17.1643 94.8456C15.3324 97.4999 17.2324 101.12 20.4575 101.12V99.5192ZM54.4629 98.4821C54.0147 99.1315 53.276 99.5192 52.4869 99.5192V101.12C53.802 101.12 55.0332 100.474 55.7802 99.3912L54.4629 98.4821ZM84.6724 0.069836C83.3573 0.069836 82.1262 0.716061 81.3792 1.79845L82.6965 2.70756C83.1447 2.05813 83.8834 1.6704 84.6724 1.6704V0.069836ZM116.702 1.6704C118.637 1.6704 119.777 3.84231 118.678 5.43492L119.995 6.34404C121.827 3.68968 119.927 0.069836 116.702 0.069836V1.6704ZM164.931 33.9513C164.931 30.0254 159.866 28.4474 157.636 31.6785L158.954 32.5876C160.292 30.6489 163.33 31.5957 163.33 33.9513H164.931ZM160.93 101.12C163.14 101.12 164.931 99.3283 164.931 97.1184H163.33C163.33 98.4443 162.256 99.5192 160.93 99.5192V101.12ZM117.336 99.5192C115.401 99.5192 114.261 97.3473 115.36 95.7547L114.043 94.8456C112.211 97.4999 114.111 101.12 117.336 101.12V99.5192ZM100.926 101.12C102.241 101.12 103.472 100.474 104.219 99.3912L102.902 98.4821C102.454 99.1315 101.715 99.5192 100.926 99.5192V101.12ZM65.6035 94.8456C63.7716 97.4999 65.6716 101.12 68.8967 101.12V99.5192C66.9617 99.5192 65.8217 97.3473 66.9208 95.7547L65.6035 94.8456ZM133.112 0.069836C131.797 0.069836 130.565 0.716061 129.818 1.79845L131.136 2.70756C131.584 2.05813 132.323 1.6704 133.112 1.6704V0.069836ZM164.931 4.07125C164.931 1.86133 163.14 0.069836 160.93 0.069836V1.6704C162.256 1.6704 163.33 2.74529 163.33 4.07125H164.931ZM163.33 10.1735C163.33 10.6606 163.182 11.1362 162.906 11.5372L164.223 12.4463C164.684 11.7781 164.931 10.9854 164.931 10.1735H163.33Z" fill="#B6FF1C" mask="url(#path-1-inside-1_1_278)"/>
</svg>
